<!-- lucide-static v1.48.0 "square-pen" — ISC licence. Same set as the rest of this folder. -->
<svg preserveAspectRatio="none" overflow="visible" style="display: block;" width="24" height="24" viewBox="0 0 24 24" fill="none" xmlns="http://www.w3.org/2000/svg">
<g id="edit">
<path d="M12 3H5a2 2 0 0 0-2 2v14a2 2 0 0 0 2 2h14a2 2 0 0 0 2-2v-7" stroke="#ECEAE6" stroke-width="2" stroke-linecap="round" stroke-linejoin="round"/>
<path d="M18.375 2.625a1 1 0 0 1 3 3l-9.013 9.014a2 2 0 0 1-.853.505l-2.873.84a.5.5 0 0 1-.62-.62l.84-2.873a2 2 0 0 1 .506-.852z" stroke="#ECEAE6" stroke-width="2" stroke-linecap="round" stroke-linejoin="round"/>
</g>
</svg>
